<svg width="48" height="48" viewBox="0 0 48 48" fill="none" xmlns="http://www.w3.org/2000/svg">
  <rect width="48" height="48" rx="12" fill="url(#bgGradient)"/>
  <path d="M24 38V26" stroke="url(#trunkGradient)" stroke-width="3" stroke-linecap="round"/>
  <path d="M24 26V18" stroke="url(#trunkGradient)" stroke-width="2.5" stroke-linecap="round"/>
  <path d="M24 22L18 16" stroke="url(#branchGradient)" stroke-width="2" stroke-linecap="round"/>
  <path d="M24 22L30 16" stroke="url(#branchGradient)" stroke-width="2" stroke-linecap="round"/>
  <path d="M24 18L20 12" stroke="url(#branchGradient)" stroke-width="2" stroke-linecap="round"/>
  <path d="M24 18L28 12" stroke="url(#branchGradient)" stroke-width="2" stroke-linecap="round"/>
  <circle cx="18" cy="16" r="3.5" fill="url(#nodeGradient1)"/>
  <circle cx="30" cy="16" r="3.5" fill="url(#nodeGradient1)"/>
  <circle cx="20" cy="12" r="3" fill="url(#nodeGradient2)"/>
  <circle cx="28" cy="12" r="3" fill="url(#nodeGradient2)"/>
  <circle cx="24" cy="26" r="4" fill="url(#centerNode)"/>
  <circle cx="18" cy="16" r="1.5" fill="white" fill-opacity="0.9"/>
  <circle cx="30" cy="16" r="1.5" fill="white" fill-opacity="0.9"/>
  <circle cx="20" cy="12" r="1.2" fill="white" fill-opacity="0.9"/>
  <circle cx="28" cy="12" r="1.2" fill="white" fill-opacity="0.9"/>
  <circle cx="24" cy="26" r="1.8" fill="white" fill-opacity="0.9"/>
  <defs>
    <linearGradient id="bgGradient" x1="0" y1="0" x2="48" y2="48" gradientUnits="userSpaceOnUse">
      <stop stop-color="#0d1829"/>
      <stop offset="1" stop-color="#1a2744"/>
    </linearGradient>
    <linearGradient id="trunkGradient" x1="24" y1="38" x2="24" y2="18" gradientUnits="userSpaceOnUse">
      <stop stop-color="#06b6d4"/>
      <stop offset="1" stop-color="#34d399"/>
    </linearGradient>
    <linearGradient id="branchGradient" x1="18" y1="22" x2="30" y2="12" gradientUnits="userSpaceOnUse">
      <stop stop-color="#06b6d4"/>
      <stop offset="1" stop-color="#34d399"/>
    </linearGradient>
    <linearGradient id="nodeGradient1" x1="18" y1="12" x2="30" y2="20" gradientUnits="userSpaceOnUse">
      <stop stop-color="#06b6d4"/>
      <stop offset="1" stop-color="#22d3ee"/>
    </linearGradient>
    <linearGradient id="nodeGradient2" x1="20" y1="9" x2="28" y2="15" gradientUnits="userSpaceOnUse">
      <stop stop-color="#34d399"/>
      <stop offset="1" stop-color="#6ee7b7"/>
    </linearGradient>
    <linearGradient id="centerNode" x1="20" y1="22" x2="28" y2="30" gradientUnits="userSpaceOnUse">
      <stop stop-color="#06b6d4"/>
      <stop offset="1" stop-color="#34d399"/>
    </linearGradient>
  </defs>
</svg>
